/* XPM */
static char * bcg_tool_xpm[] = {
"22 22 66 1",
" 	c None",
".	c #000000",
"+	c #474747",
"@	c #E3E3E3",
"#	c #FAFAFA",
"$	c #FDFDFD",
"%	c #F9F9F9",
"&	c #D3D3D3",
"*	c #434343",
"=	c #B7B7B7",
"-	c #FCFCFC",
";	c #F7F7F7",
">	c #F6F6F6",
",	c #D7D7D7",
"'	c #959595",
")	c #B0B0B0",
"!	c #F5F5F5",
"~	c #A1A1A1",
"{	c #4D4D4D",
"]	c #1E1E1E",
"^	c #F2F2F2",
"/	c #F3F3F3",
"(	c #F4F4F4",
"_	c #D1D1D1",
":	c #909090",
"<	c #414141",
"[	c #F8F8F8",
"}	c #F1F1F1",
"|	c #6D6D6D",
"1	c #262626",
"2	c #606060",
"3	c #323232",
"4	c #D0D0D0",
"5	c #333333",
"6	c #9F9F9F",
"7	c #353535",
"8	c #010101",
"9	c #ECECEC",
"0	c #A3A3A3",
"a	c #585858",
"b	c #C2C2C2",
"c	c #484848",
"d	c #454545",
"e	c #4C4C4C",
"f	c #2B2B2B",
"g	c #5B5B5B",
"h	c #C8C8C8",
"i	c #E2E2E2",
"j	c #A0A0A0",
"k	c #181818",
"l	c #A4A4A4",
"m	c #FBFBFB",
"n	c #6F6F6F",
"o	c #0A0A0A",
"p	c #B2B2B2",
"q	c #3C3C3C",
"r	c #070707",
"s	c #D2D2D2",
"t	c #888888",
"u	c #9A9A9A",
"v	c #E8E8E8",
"w	c #EBEBEB",
"x	c #CDCDCD",
"y	c #D9D9D9",
"z	c #D6D6D6",
"A	c #ACACAC",
"                      ",
"                      ",
"                      ",
"        ......        ",
"      .+@#$$%&*.      ",
"     .=-#;>>>>,'.     ",
"    .)#!~{]^//(_:.    ",
"    <[}|123//(((45    ",
"   .,;67238/(!!>90.   ",
"   .(^a23..(!!>>;b.   ",
"   .%}cd...!!>>;;_.   ",
"   .(^ef...!>>;;[&.   ",
"   .;^g58..>>;;[%h.   ",
"   .i(j1k..>;[[%}l.   ",
"    +m!no..;[[%%b5    ",
"    .p%>jqr[[%%st.    ",
"     .uv[;[[>wxt.     ",
"      .q=,yz4A5.      ",
"        ......        ",
"                      ",
"                      ",
"                      "};
